<svg width="60" height="61" viewBox="0 0 60 61" fill="none" xmlns="http://www.w3.org/2000/svg">
<g clip-path="url(#clip0_1513_2319)">
<path d="M8.81901 54.4032L4.1062 1.54181H55.8937L51.1762 54.3952L29.9685 60.2748L8.81901 54.4032Z" fill="#212121"/>
<path d="M30.0005 55.7809L47.1375 51.0296L51.1692 5.86371H30.0005V55.7809Z" fill="#212121"/>
<path d="M30.0005 25.0154H38.5796L39.1721 18.3765H30.0005V11.8932H46.2577L46.1021 13.6328L44.5083 31.4987H30.0005V25.0154Z" fill="white"/>
<path d="M30.0389 41.8529L30.0104 41.8613L22.7902 39.9118L22.3285 34.741H15.8213L16.7293 44.9209L30.0094 48.6067L30.0389 48.5982V41.8529Z" fill="white"/>
<path d="M38.0282 31.2245L37.2473 39.9067L30.0164 41.8585V48.6039L43.3073 44.9204L43.4048 43.825L44.5326 31.2245H38.0282Z" fill="white"/>
<path d="M30.0225 11.8932V18.3765H14.3625L14.2327 16.9197L13.9374 13.6328L13.7822 11.8932H30.0225ZM30.0005 25.0164V31.4997H22.8713L22.7414 30.0428L22.4457 26.7559L22.291 25.0164H30.0005Z" fill="white"/>
</g>
<defs>
<clipPath id="clip0_1513_2319">
<rect width="60" height="60" fill="white" transform="translate(0 0.908081)"/>
</clipPath>
</defs>
</svg>
