<svg width="60" height="60" viewBox="0 0 60 60" fill="none" xmlns="http://www.w3.org/2000/svg">
<path d="M22.3204 45.9937C22.3204 45.9937 20.0858 47.294 23.9127 47.7328C28.5496 48.2625 30.9191 48.1865 36.0276 47.2209C36.0276 47.2209 37.3733 48.0623 39.2493 48.7917C27.7935 53.6995 13.3236 48.5072 22.3204 45.9937ZM20.9197 39.5883C20.9197 39.5883 18.4129 41.444 22.243 41.8406C27.1963 42.352 31.1071 42.3937 37.8777 41.0906C37.8777 41.0906 38.8119 42.0398 40.2833 42.5583C26.4355 46.6083 11.0118 42.877 20.9197 39.5883Z" fill="#212121"/>
<path d="M32.7197 28.7208C35.5439 31.9716 31.9791 34.8943 31.9791 34.8943C31.9791 34.8943 39.1458 31.1954 35.8552 26.5613C32.7806 22.2418 30.4238 20.0963 43.1841 12.6957C43.1841 12.6961 23.1539 17.6972 32.7197 28.7208Z" fill="#212121"/>
<path d="M47.8701 50.7324C47.8701 50.7324 49.5244 52.0965 46.0476 53.1507C39.4373 55.1532 18.5292 55.7569 12.7223 53.2308C10.6359 52.3224 14.55 51.0629 15.7814 50.7971C17.0653 50.5191 17.7984 50.5697 17.7984 50.5697C15.4767 48.9352 2.79232 53.7807 11.3564 55.1705C34.71 58.9561 53.9269 53.4657 47.8701 50.7324ZM23.3962 32.9504C23.3962 32.9504 12.7622 35.4765 19.6308 36.3947C22.5314 36.7829 28.3111 36.6938 33.6984 36.2419C38.1 35.8721 42.517 35.0822 42.517 35.0822C42.517 35.0822 40.9664 35.7474 39.8433 36.5133C29.0423 39.3544 8.18201 38.0311 14.1881 35.1268C19.2656 32.671 23.3962 32.9504 23.3962 32.9504ZM42.4729 43.613C53.4515 37.9097 48.375 32.4286 44.8317 33.1669C43.9655 33.3474 43.5769 33.5044 43.5769 33.5044C43.5769 33.5044 43.8994 32.9986 44.5144 32.7811C51.5236 30.3179 56.9133 40.0482 42.2536 43.9022C42.2536 43.9013 42.4219 43.749 42.4729 43.613Z" fill="#212121"/>
<path d="M35.8551 0.743896C35.8551 0.743896 41.9338 6.82639 30.0881 16.1765C20.5884 23.6794 27.922 27.9562 30.0848 32.8448C24.539 27.8419 20.4712 23.437 23.1998 19.3378C27.2066 13.3219 38.3071 10.4039 35.8551 0.743896Z" fill="#212121"/>
<path d="M24.4754 59.0723C35.011 59.7459 51.1941 58.6973 51.5771 53.7117C51.5771 53.7117 50.8407 55.6017 42.8692 57.1012C33.8757 58.7943 22.7813 58.597 16.2034 57.5109C16.2034 57.5114 17.551 58.627 24.4754 59.0723Z" fill="#212121"/>
</svg>
