<svg width="60" height="61" viewBox="0 0 60 61" fill="none" xmlns="http://www.w3.org/2000/svg">
<g clip-path="url(#clip0_1513_2285)">
<path d="M0.659912 1.56805H59.3399V60.2485H0.659912V1.56805Z" fill="#212121"/>
<path d="M54.5376 46.2531C54.1078 43.576 52.3621 41.3274 47.1914 39.2307C45.3951 38.4052 43.3926 37.8141 42.7959 36.4529C42.584 35.6607 42.5559 35.2145 42.6899 34.7349C43.0748 33.1787 44.9324 32.6935 46.4048 33.1398C47.3531 33.4576 48.2507 34.1884 48.7921 35.3541C51.3243 33.7145 51.3192 33.7252 53.0873 32.5984C52.4399 31.5948 52.0945 31.1316 51.6707 30.7023C50.1478 29.0012 48.0726 28.1251 44.7539 28.1921L43.0251 28.4157C41.3685 28.8343 39.7898 29.7038 38.864 30.8696C36.0862 34.0215 36.8784 39.5377 40.2585 41.8079C43.5885 44.3073 48.4804 44.8759 49.1053 47.2131C49.7132 50.0743 47.0025 51.0006 44.3081 50.6715C42.3225 50.2585 41.2181 49.2493 40.0242 47.4141C37.8267 48.6859 37.8267 48.6859 35.5673 49.9852C36.1031 51.1566 36.666 51.6868 37.5642 52.7016C41.8148 57.0132 52.4517 56.8013 54.3595 50.2754C54.4368 50.0513 54.9506 48.557 54.5376 46.2531ZM32.5603 28.5376H27.0717L27.0492 42.7276C27.0492 45.7454 27.2053 48.512 26.7145 49.3599C25.9115 51.0277 23.8307 50.821 22.8825 50.4976C21.9173 50.0232 21.4265 49.3487 20.8579 48.3952C20.7018 48.1215 20.5846 47.9096 20.5453 47.8932L16.0828 50.626C16.8248 52.149 17.9179 53.4709 19.3181 54.3296C21.4096 55.5849 24.2207 55.9698 27.1607 55.2948C29.0742 54.7374 30.7251 53.5829 31.5895 51.8256C32.8392 49.5216 32.571 46.7331 32.5598 43.6487C32.5879 38.6166 32.5603 33.5856 32.5603 28.5376Z" fill="white"/>
</g>
<defs>
<clipPath id="clip0_1513_2285">
<rect width="60" height="60" fill="white" transform="translate(0 0.908081)"/>
</clipPath>
</defs>
</svg>
