<svg width="60" height="60" viewBox="0 0 60 60" fill="none" xmlns="http://www.w3.org/2000/svg">
<path d="M30.5638 33.142L30.4877 37.7497C30.4914 37.7489 30.4949 37.7482 30.498 37.7475C30.5025 37.7466 30.5064 37.7458 30.51 37.7451C30.5113 37.7448 30.5125 37.7446 30.5136 37.7444C30.5358 37.6764 30.5616 37.6144 30.5909 37.5578M30.5638 33.142L41.6146 35.5041C40.2627 35.7164 38.9119 35.9355 37.5612 36.1546C37.3528 36.1884 37.1444 36.2222 36.936 36.2559C36.5014 36.3263 36.0666 36.396 35.6318 36.4657C34.4544 36.6543 33.2767 36.843 32.1018 37.0467M30.5638 33.142L30.4846 21.7739M30.5638 33.142L30.4846 21.7739M30.5909 37.5578L30.5867 37.813L30.5962 37.8159M30.5909 37.5578L30.6638 33.1437H30.6639L30.6638 33.1413L30.5852 21.8581M30.5909 37.5578L30.5852 21.8581M30.5962 37.8159L30.5867 37.8132L30.5865 37.8266C30.5915 37.8236 30.5949 37.8201 30.5962 37.8159ZM30.5962 37.8159C30.7817 37.1804 31.276 37.1336 31.7592 37.0878C31.8756 37.0768 31.9912 37.0658 32.1018 37.0467M32.1018 37.0467L32.0848 36.9482C32.0848 36.9482 32.0847 36.9482 32.0847 36.9482L32.1018 37.0467ZM30.5852 21.8581L31.2521 21.7436M30.5852 21.8581L41.2003 20.1792M30.5852 21.8581L30.5015 21.8725L30.4846 21.7739M30.5852 21.8581L30.5846 21.7732L30.4846 21.7739M31.2521 21.7436C31.5549 21.694 31.8577 21.6443 32.1605 21.5945C33.0858 21.4425 34.0109 21.2905 34.9366 21.1433C36.2129 20.9406 37.4903 20.7428 38.7677 20.545C38.9581 20.5156 39.1484 20.4861 39.3387 20.4566L39.3388 20.4566C39.7746 20.3888 40.2104 20.3248 40.6471 20.2607C40.8313 20.2337 41.0157 20.2066 41.2003 20.1792M31.2521 21.7436C31.252 21.7436 31.2518 21.7437 31.2517 21.7437L31.2356 21.645M31.2521 21.7436L31.2525 21.7435L31.2356 21.645M41.2003 20.1792C41.1913 20.1531 41.1823 20.1269 41.1732 20.1008L41.2677 20.0681L41.2825 20.167C41.2551 20.1711 41.2277 20.1752 41.2003 20.1792ZM31.2356 21.645L30.4846 21.7739M31.2356 21.645C31.5384 21.5954 31.8413 21.5456 32.1441 21.4959C33.0694 21.3438 33.9949 21.1918 34.9209 21.0445C36.1974 20.8418 37.475 20.644 38.7525 20.4462C38.9428 20.4167 39.1331 20.3873 39.3234 20.3578L30.4846 21.7739M42.1116 35.3977C42.103 35.4199 42.094 35.4435 42.0863 35.4659L42.1809 35.4984L42.1806 35.3984C42.1574 35.3985 42.1344 35.3982 42.1116 35.3977Z" fill="#212121" stroke="#403D39" stroke-width="0.2"/>
<path d="M29.2336 50.2149L28.8831 51.4111L17.2823 27.8278C17.2823 27.8278 17.2823 27.8278 17.2823 27.8278C17.4847 24.9829 17.8934 22.1682 18.7175 19.4311C18.7309 19.4463 18.7435 19.4606 18.7545 19.4735C18.7976 19.5244 18.8273 19.5676 18.8419 19.6108L18.8419 19.6109C19.6664 22.0388 20.4848 24.4687 21.299 26.9C22.0887 29.2583 22.8781 31.6168 23.6674 33.9754C25.4355 39.2581 27.2036 44.5409 28.9753 49.8219L28.9753 49.822C29.0057 49.9124 29.0589 49.9908 29.111 50.0592C29.1331 50.0881 29.1538 50.1139 29.1737 50.1386C29.1945 50.1646 29.2144 50.1893 29.2336 50.2149Z" fill="#252422" stroke="#403D39" stroke-width="0.2"/>
<path d="M41.1364 19.9865C40.9462 20.0147 40.7559 20.0426 40.5656 20.0705C40.1461 20.132 39.7265 20.1935 39.3078 20.258L39.3077 20.2581C39.1171 20.2876 38.9264 20.3171 38.7357 20.3466C37.4587 20.5443 36.1812 20.7421 34.9048 20.9448L34.9048 20.9448C33.9785 21.0922 33.0527 21.2443 32.1272 21.3963C31.8245 21.4461 31.5217 21.4958 31.219 21.5454L31.2183 21.5455L30.5829 21.6546L30.5786 21.282H30.5787L30.5784 21.277C30.5703 21.1452 30.5604 21.015 30.5506 20.8856C30.53 20.6135 30.5096 20.3452 30.5064 20.0745L30.5064 20.0744C30.4899 18.7635 30.4766 17.4557 30.4633 16.1477C30.4505 14.8899 30.4377 13.6319 30.4221 12.3709M41.1364 19.9865L30.4831 21.6717L30.4786 21.2831C30.4707 21.1544 30.4609 21.0258 30.4512 20.8972C30.4304 20.6234 30.4096 20.3496 30.4064 20.0756C30.3899 18.7666 30.3766 17.4575 30.3633 16.1484C30.3505 14.8897 30.3377 13.6309 30.3221 12.3722M41.1364 19.9865C39.578 15.1877 37.0934 10.9374 33.605 7.27791L33.605 7.2779C33.4227 7.08665 33.2352 6.89767 33.0468 6.7078C32.3222 5.97772 31.5846 5.23439 31.0842 4.29778M41.1364 19.9865L31.0842 4.29778M30.4221 12.3709C30.4024 10.7632 30.3728 9.15605 30.34 7.54906M30.4221 12.3709L30.3221 12.3722M30.4221 12.3709L30.3221 12.3722M30.34 7.54906C30.3199 6.55069 30.2983 5.55065 30.2532 4.55221L30.2532 4.55218C30.2409 4.28081 30.2129 4.01081 30.1839 3.74367C30.1811 3.71832 30.1784 3.69301 30.1756 3.66773C30.1492 3.42555 30.1231 3.18583 30.1073 2.94564L30.0075 2.95219M30.34 7.54906L30.24 7.5511M30.34 7.54906L30.24 7.5511M30.0075 2.95219C29.994 2.73981 30.0027 2.52632 30.0114 2.31279C30.0125 2.28534 30.0136 2.25789 30.0147 2.23045C30.0457 2.29069 30.0766 2.35099 30.1076 2.41133M30.0075 2.95219L30.1073 2.94581C30.0959 2.76773 30.1006 2.59131 30.1076 2.41133M30.0075 2.95219C30.0234 3.19466 30.0498 3.43654 30.0762 3.67838C30.1081 3.97093 30.14 4.26341 30.1533 4.55672C30.1983 5.55375 30.2199 6.55266 30.24 7.5511M30.1076 2.41133C30.1678 2.52887 30.228 2.64655 30.2882 2.76429C30.5502 3.27666 30.8128 3.79016 31.0842 4.29778M30.1076 2.41133L31.0842 4.29778M30.24 7.5511C30.2728 9.15797 30.3024 10.7648 30.3221 12.3722M31.2352 21.6441C31.5381 21.5945 31.841 21.5447 32.1439 21.4949C33.0691 21.3429 33.9946 21.1909 34.9205 21.0436L31.2352 21.6441ZM31.2352 21.6441L30.5841 21.7558L31.2352 21.6441Z" fill="#212121" stroke="#403D39" stroke-width="0.2"/>
<path d="M30.4173 42.0506C30.462 41.0172 30.5024 39.9837 30.5427 38.9505C30.5559 38.6114 30.5692 38.2724 30.5826 37.9334C30.5943 37.9304 30.6093 37.926 30.6237 37.9193C30.6363 37.9134 30.6779 37.8926 30.6921 37.8426L30.5958 37.8154L30.6918 37.8435C30.7452 37.6608 30.824 37.5366 30.9167 37.4492C31.0096 37.3614 31.1219 37.3056 31.2495 37.268C31.3781 37.2301 31.519 37.2116 31.6681 37.1966C31.7003 37.1933 31.733 37.1902 31.7659 37.1871C31.8829 37.176 32.0037 37.1646 32.1185 37.1448L32.1185 37.1448C33.2966 36.9409 34.4771 36.7516 35.6582 36.5622C36.0893 36.4931 36.5205 36.424 36.9517 36.3542L36.9517 36.3542C37.1599 36.3204 37.368 36.2867 37.5762 36.2529C38.9272 36.0338 40.2779 35.8147 41.6298 35.6024L41.6298 35.6023C41.7132 35.5892 41.8005 35.5878 41.8934 35.59C41.9255 35.5908 41.9593 35.592 41.9939 35.5934C42.0123 35.594 42.031 35.5947 42.0497 35.5954C41.9722 35.8766 41.899 36.1579 41.826 36.4384C41.6375 37.1628 41.4504 37.8819 41.1955 38.5794C40.7772 39.7228 40.2707 40.8396 39.732 41.9362C38.9278 43.5672 37.9325 45.0967 36.767 46.4926L36.7669 46.4928C35.871 47.5703 34.8716 48.567 33.8665 49.5547L33.8665 49.5548C33.4893 49.9256 33.0691 50.2466 32.6431 50.5719C32.4662 50.7071 32.2883 50.843 32.1122 50.9835L32.0198 50.9204L31.4717 50.4518L30.8956 49.1891C30.4972 47.695 30.2796 46.1584 30.2477 44.6124L30.2583 44.354L30.3384 43.2183L30.3384 43.2181C30.3468 43.0969 30.356 42.975 30.3653 42.8527C30.3856 42.5865 30.406 42.3183 30.4173 42.0506ZM30.4173 42.0506C30.4173 42.0507 30.4173 42.0507 30.4173 42.0507L30.3174 42.0464L30.4173 42.0506C30.4173 42.0506 30.4173 42.0506 30.4173 42.0506Z" fill="#212121" stroke="#403D39" stroke-width="0.2"/>
<path d="M30.4594 33.4163L30.3258 33.5719L30.2249 33.6892L30.1594 33.5491C30.1342 33.4953 30.1072 33.4419 30.0804 33.3886C30.0219 33.2726 29.9637 33.1573 29.9249 33.0404C29.2833 31.1182 28.6436 29.1958 28.0038 27.2734C27.2813 25.1021 26.5587 22.931 25.8337 20.7603C24.7816 17.6152 23.7242 14.4718 22.6613 11.3303L22.6613 11.3302C22.6402 11.2678 22.6066 11.2068 22.5658 11.1413C22.5546 11.1233 22.5423 11.1042 22.5295 11.0844L20.3484 15.0947C20.3653 15.1143 20.3828 15.1335 20.4011 15.1536C20.422 15.1766 20.4439 15.2007 20.4674 15.228C20.5231 15.2928 20.5814 15.3694 20.6124 15.461M30.4594 33.4163L20.5177 15.4931M30.4594 33.4163L30.3858 37.849C30.3858 37.8494 30.3858 37.8497 30.3857 37.8501C30.3699 38.2499 30.3543 38.6496 30.3387 39.0493C30.2998 40.0471 30.2609 41.0447 30.2185 42.0426L30.2184 42.0426C30.2073 42.3069 30.1873 42.5694 30.1672 42.8337C30.1594 42.9357 30.1516 43.038 30.1443 43.1408M30.4594 33.4163L30.1443 43.1408M20.6124 15.461C20.6124 15.461 20.6124 15.461 20.6124 15.461L20.5177 15.4931M20.6124 15.461C20.6124 15.461 20.6124 15.4609 20.6124 15.4609L20.5177 15.4931M20.6124 15.461C21.6666 18.5629 22.7135 21.6672 23.7532 24.774L23.7532 24.774C24.3541 26.5708 24.9518 28.368 25.5495 30.1652C26.2325 32.2189 26.9154 34.2724 27.603 36.3249C28.1368 37.9176 28.6786 39.5072 29.223 41.1042C29.4625 41.8067 29.7024 42.5107 29.9424 43.2171M20.5177 15.4931C21.5718 18.5949 22.6187 21.6991 23.6584 24.8058C24.2591 26.6019 24.8568 28.3992 25.4545 30.1965C26.1376 32.2505 26.8207 34.3045 27.5082 36.3567C28.0421 37.9496 28.5841 39.5397 29.1285 41.1368C29.3683 41.8404 29.6086 42.5453 29.8488 43.2524L29.9424 43.2171M29.9424 43.2171L30.1443 43.1408M29.9424 43.2171C29.9532 43.2486 29.9639 43.2802 29.9746 43.3118L30.2396 43.2117C30.2481 43.0889 30.2574 42.9662 30.2668 42.8434C30.2869 42.5782 30.3071 42.3128 30.3184 42.0469L30.1443 43.1408M22.4681 10.9882L22.5235 10.8862C22.5426 10.9193 22.5631 10.9519 22.584 10.9844L22.4681 10.9882Z" fill="#252422" stroke="#403D39" stroke-width="0.2"/>
<path d="M30.1292 43.361L29.9167 43.4412L29.8199 43.4778L29.7866 43.3799C29.5492 42.6812 29.3117 41.9847 29.0747 41.2894C28.5164 39.6518 27.9606 38.0216 27.4137 36.389C26.7263 34.337 26.043 32.2825 25.3598 30.2282C24.762 28.4308 24.1643 26.6335 23.5638 24.838C22.5243 21.7316 21.4774 18.6275 20.4234 15.5259C20.4049 15.472 20.3677 15.4192 20.3159 15.3589C20.3004 15.3409 20.2826 15.3211 20.2637 15.3003L18.8085 19.2318C18.8222 19.2479 18.8364 19.2637 18.8513 19.2805C18.8688 19.3001 18.8874 19.3209 18.9077 19.3449C18.9546 19.4004 19.0046 19.4671 19.0317 19.5472M30.1292 43.361L18.9369 19.5793M30.1292 43.361L30.0607 44.3324L29.9907 44.5847L29.9884 44.593L29.9876 44.6015C29.9506 44.9713 29.9153 45.341 29.8801 45.7103C29.7965 46.5866 29.713 47.4614 29.6063 48.3343C29.5543 48.7577 29.4628 49.1728 29.3702 49.5933C29.3432 49.716 29.316 49.8392 29.2897 49.9631M30.1292 43.361L29.2897 49.9631M19.0317 19.5472C19.0317 19.5472 19.0317 19.5472 19.0317 19.5472L18.9369 19.5793M19.0317 19.5472C19.0316 19.5471 19.0316 19.5471 19.0316 19.5471L18.9369 19.5793M19.0317 19.5472C19.8559 21.9754 20.675 24.4054 21.489 26.837M18.9369 19.5793C19.7611 22.0074 20.5802 24.4372 21.3941 26.8688M21.489 26.837L21.3941 26.8688M21.489 26.837C22.2762 29.1882 23.0632 31.5394 23.8501 33.8906C25.6206 39.1805 27.3911 44.4703 29.1652 49.7588L21.3941 26.8688M21.489 26.837C21.489 26.837 21.489 26.837 21.489 26.837L21.3941 26.8688M29.2897 49.9631C29.283 49.9546 29.2766 49.9464 29.2705 49.9384C29.2218 49.8746 29.1849 49.8174 29.1652 49.7589L29.2897 49.9631ZM20.1885 15.2154L20.2288 15.1064C20.2518 15.1364 20.277 15.1655 20.3029 15.1944L20.1885 15.2154Z" fill="#252422" stroke="#403D39" stroke-width="0.2"/>
<path d="M25.9279 20.729C26.6759 22.9682 27.4214 25.2084 28.167 27.4485C28.7839 29.3023 29.4009 31.1561 30.0192 33.0093C30.0557 33.1189 30.1083 33.2232 30.1649 33.3354C30.1771 33.3595 30.1894 33.384 30.2018 33.409L25.9279 20.729ZM25.9279 20.729C24.8759 17.5838 23.8184 14.4403 22.7554 11.2987L25.9279 20.729ZM30.2726 33.3266C30.265 33.3114 30.2575 33.2966 30.2501 33.282C30.1957 33.1742 30.1483 33.0805 30.1141 32.9777L30.1141 32.9777C29.4958 31.1247 28.8789 29.271 28.2619 27.4171C27.5163 25.1769 26.7707 22.9365 26.0228 20.6973L26.0228 20.6973C24.9707 17.552 23.9132 14.4085 22.8502 11.2668C22.8219 11.1821 22.7787 11.1054 22.7353 11.0358C22.717 11.0064 22.6996 10.9796 22.6828 10.9538C22.6695 10.9332 22.6565 10.9132 22.6438 10.893L25.3646 7.31388C25.3711 7.32133 25.3776 7.32867 25.3839 7.33588C25.4015 7.35589 25.4182 7.37484 25.4325 7.39189C25.4794 7.44794 25.513 7.49666 25.5301 7.54598C26.318 9.85247 27.0988 12.1618 27.875 14.4726L27.875 14.4726C28.1349 15.2459 28.3934 16.0198 28.6519 16.7938C29.1147 18.1792 29.5776 19.5649 30.0483 20.9478L30.0483 20.9478C30.0814 21.045 30.1526 21.1209 30.2177 21.1814C30.2462 21.2079 30.2725 21.2308 30.2972 21.2523C30.3259 21.2773 30.3526 21.3005 30.3781 21.3254L30.3833 21.7746C30.3833 21.7746 30.3833 21.7747 30.3833 21.7747C30.4104 25.5506 30.437 29.3279 30.4632 33.1048L30.2726 33.3266Z" fill="#252422" stroke="#403D39" stroke-width="0.2"/>
<path d="M25.7203 7.48004L25.7204 7.48033C26.5084 9.7877 27.2894 12.0969 28.0657 14.408C28.3258 15.1821 28.5844 15.9564 28.843 16.7305C29.3057 18.1155 29.7682 19.5 30.2387 20.8824L25.7203 7.48004ZM25.7203 7.48004C25.6909 7.39489 25.6376 7.32318 25.5869 7.26259C25.5654 7.237 25.5455 7.21441 25.5266 7.19302C25.5166 7.18169 25.5069 7.17069 25.4974 7.15976C25.7571 6.90467 26.0142 6.64779 26.2709 6.39127C26.9066 5.75609 27.5401 5.12308 28.2064 4.52473C29.0425 3.7745 29.7408 2.95299 29.8069 1.75321L29.9217 2.04217C29.9198 2.1275 29.9162 2.21457 29.9126 2.30266C29.9037 2.51859 29.8945 2.74064 29.9088 2.95824L29.9088 2.95826M25.7203 7.48004L29.9088 2.95826M29.9088 2.95826C29.9248 3.20299 29.9514 3.44704 29.9778 3.68853M29.9088 2.95826L29.9778 3.68853M30.3615 21.0401C30.3587 21.0022 30.3558 20.9641 30.3529 20.926C30.3317 20.645 30.3101 20.3601 30.3075 20.0763M30.3615 21.0401L30.3231 12.3717L30.2231 12.3729C30.2381 13.6023 30.2507 14.8329 30.2633 16.0637C30.277 17.4016 30.2906 18.7396 30.3075 20.0763M30.3615 21.0401C30.3593 21.0381 30.3572 21.0361 30.3551 21.0341C30.2937 20.9771 30.2548 20.9297 30.2387 20.8825L30.3615 21.0401ZM30.3075 20.0763C30.3075 20.0762 30.3075 20.0762 30.3075 20.0761L30.4075 20.0751L30.3075 20.0764C30.3075 20.0764 30.3075 20.0764 30.3075 20.0763ZM29.9778 3.68853C29.9805 3.71397 29.9833 3.73938 29.9861 3.76477M29.9778 3.68853L29.9861 3.76477M29.9861 3.76477C30.0151 4.032 30.0424 4.29637 30.0544 4.56079L29.9861 3.76477Z" fill="#252422" stroke="#403D39" stroke-width="0.2"/>
<path fill-rule="evenodd" clip-rule="evenodd" d="M29.3429 50.196C29.4662 49.5796 29.6283 48.9679 29.7047 48.3459C29.8571 47.1042 29.9616 45.8559 30.0863 44.6109L30.1172 44.6062L30.1482 44.6114C30.1801 46.1692 30.3995 47.7175 30.8016 49.2229C30.7191 49.3317 30.6024 49.4287 30.5588 49.5515C30.218 50.5124 29.8969 51.4809 29.5543 52.4418C29.5074 52.5731 29.3771 52.6753 29.2852 52.7906L28.9351 51.5878L29.3429 50.196Z" fill="#A9AA88"/>
<path fill-rule="evenodd" clip-rule="evenodd" d="M29.2856 52.791C29.3775 52.6757 29.5083 52.5735 29.5547 52.4423C29.8974 51.4814 30.2189 50.5134 30.5592 49.552C30.6028 49.4292 30.7191 49.3321 30.802 49.2234L31.3903 50.5143C31.2741 50.6793 31.1138 50.8279 31.0491 51.0117L29.9222 54.3206C29.8758 54.4532 29.7174 54.547 29.6114 54.659L29.2856 52.791Z" fill="#B6B598"/>
<path fill-rule="evenodd" clip-rule="evenodd" d="M29.6113 54.6586C29.7177 54.547 29.8757 54.4528 29.9221 54.3202L31.049 51.0113C31.1132 50.828 31.274 50.6789 31.3902 50.5139L31.9598 51C31.6846 51.2719 31.5318 51.5859 31.6237 51.983L31.4507 52.5492C31.372 52.6463 31.258 52.7306 31.2191 52.8417C30.8259 53.9681 30.4504 55.1006 30.0543 56.227C30.0041 56.37 29.8649 56.482 29.7665 56.6077C29.7154 55.9575 29.6634 55.3088 29.6113 54.6586Z" fill="#C2C1A7"/>
<path fill-rule="evenodd" clip-rule="evenodd" d="M29.767 56.6076C29.865 56.4815 30.0042 56.3695 30.0549 56.227C30.451 55.1011 30.8264 53.9686 31.2197 52.8417C31.2586 52.7311 31.372 52.6462 31.4513 52.5492L31.2127 55.1484C31.1489 55.222 31.0566 55.2862 31.0261 55.372C30.7566 56.1286 30.5025 56.8908 30.2321 57.6473C30.1763 57.8034 30.0694 57.9412 29.986 58.087C29.9119 57.99 29.7792 57.8962 29.7731 57.795C29.7492 57.4008 29.7656 57.0037 29.767 56.6076Z" fill="#CECDB7"/>
<path fill-rule="evenodd" clip-rule="evenodd" d="M29.9854 58.087C30.0688 57.9408 30.1757 57.803 30.2314 57.6473C30.5024 56.8913 30.756 56.1291 31.0255 55.372C31.056 55.2862 31.1488 55.2225 31.2121 55.1484L31.2177 56.8547L30.6468 58.3191L29.9854 58.087Z" fill="#DBDAC7"/>
<path fill-rule="evenodd" clip-rule="evenodd" d="M30.647 58.3195L31.2179 56.8551L31.3356 58.5876L30.647 58.3195Z" fill="#EBE9DC"/>
<path fill-rule="evenodd" clip-rule="evenodd" d="M31.6237 51.9835C31.5318 51.5864 31.6842 51.2719 31.9598 51.0005L32.1178 51.1083L31.6237 51.9835Z" fill="#CECDB7"/>
<path fill-rule="evenodd" clip-rule="evenodd" d="M30.1481 44.6119L30.1171 44.6067L30.0862 44.6114L30.1588 44.3494L30.1481 44.6119Z" fill="#4FAA41"/>
</svg>
