<svg width="60" height="61" viewBox="0 0 60 61" fill="none" xmlns="http://www.w3.org/2000/svg">
<path d="M30 36.2518C32.9513 36.2518 35.3438 33.8594 35.3438 30.9081C35.3438 27.9568 32.9513 25.5643 30 25.5643C27.0487 25.5643 24.6562 27.9568 24.6562 30.9081C24.6562 33.8594 27.0487 36.2518 30 36.2518Z" fill="#212121"/>
<path d="M50.2969 22.0956C49.2656 21.7206 48.1875 21.3456 47.0625 21.0175C47.3438 19.8925 47.5781 18.7675 47.7656 17.6893C48.75 11.5018 47.6719 7.14246 44.6719 5.45496C43.7812 4.93933 42.7969 4.70496 41.6719 4.70496C38.3906 4.70496 34.2188 7.14246 30 11.2206C25.7812 7.14246 21.6094 4.70496 18.3281 4.70496C17.2031 4.70496 16.2188 4.93933 15.3281 5.45496C12.3281 7.18933 11.25 11.5487 12.2344 17.6893C12.4219 18.7675 12.6562 19.8925 12.9375 21.0175C11.8125 21.3456 10.7344 21.6737 9.70313 22.0956C3.84375 24.3456 0.65625 27.4393 0.65625 30.9081C0.65625 34.3768 3.89063 37.4706 9.70313 39.7206C10.7344 40.0956 11.8125 40.4706 12.9375 40.7987C12.6562 41.9237 12.4219 43.0487 12.2344 44.1268C11.25 50.3143 12.3281 54.6737 15.3281 56.3612C16.2188 56.8768 17.2031 57.1112 18.3281 57.1112C21.6562 57.1112 25.8281 54.6737 30 50.5956C34.2188 54.6737 38.3906 57.1112 41.6719 57.1112C42.7969 57.1112 43.7812 56.8768 44.6719 56.3612C47.6719 54.6268 48.75 50.2675 47.7656 44.1268C47.5781 43.0487 47.3438 41.9237 47.0625 40.7987C48.1875 40.4706 49.2656 40.1425 50.2969 39.7206C56.1562 37.4706 59.3438 34.3768 59.3438 30.9081C59.3438 27.4393 56.1562 24.3456 50.2969 22.0956ZM43.3594 7.79871C45.2812 8.92371 45.9375 12.3925 45.1406 17.3143C45 18.2987 44.7656 19.33 44.4844 20.4081C42.0469 19.8456 39.4688 19.4706 36.75 19.2362C35.1562 16.9862 33.5156 14.9706 31.875 13.1425C35.3438 9.72058 38.8594 7.37683 41.7188 7.37683C42.3281 7.37683 42.8906 7.51746 43.3594 7.79871ZM38.1094 35.5956C37.2656 37.0956 36.2812 38.5956 35.25 40.0956C33.5156 40.2362 31.7812 40.2831 30 40.2831C28.1719 40.2831 26.4375 40.2362 24.75 40.0956C23.7187 38.5956 22.7812 37.0956 21.9375 35.5956C21.0469 34.0487 20.2031 32.455 19.4531 30.9081C20.2031 29.3612 21.0469 27.7675 21.9375 26.2206C22.7812 24.7206 23.7656 23.2206 24.7969 21.7206C26.5312 21.58 28.2656 21.5331 30.0469 21.5331C31.875 21.5331 33.6094 21.58 35.2969 21.7206C36.3281 23.2206 37.2656 24.7206 38.1094 26.2206C39 27.7675 39.8438 29.3612 40.5938 30.9081C39.7969 32.455 39 34.0018 38.1094 35.5956ZM42 34.0487C42.7031 35.6893 43.2656 37.2831 43.7812 38.8768C42.1875 39.2518 40.5 39.5331 38.7188 39.7675C39.2812 38.8768 39.8906 37.9393 40.4062 36.955C40.9687 35.9706 41.4844 34.9862 42 34.0487ZM30 46.7518C28.875 45.5331 27.7969 44.2206 26.7656 42.8612C27.8437 42.9081 28.9219 42.955 30 42.955C31.0781 42.955 32.1562 42.9081 33.2344 42.8612C32.2031 44.2206 31.125 45.5331 30 46.7518ZM21.2812 39.7206C19.5 39.4862 17.8125 39.205 16.2187 38.83C16.7344 37.2831 17.2969 35.6425 18 34.0018C18.5156 34.9393 19.0312 35.9237 19.5937 36.8612C20.1562 37.8925 20.7188 38.7831 21.2812 39.7206ZM18 27.7675C17.2969 26.1268 16.7344 24.5331 16.2187 22.9393C17.8125 22.5643 19.5 22.2831 21.2812 22.0487C20.7188 22.9393 20.1094 23.8768 19.5937 24.8612C19.0312 25.8456 18.5156 26.83 18 27.7675ZM30 15.0643C31.125 16.2831 32.2031 17.5956 33.2344 18.955C32.1562 18.9081 31.0781 18.8612 30 18.8612C28.9219 18.8612 27.8437 18.9081 26.7656 18.955C27.7969 17.5956 28.875 16.2831 30 15.0643ZM40.4062 24.9081L38.7188 22.0956C40.5 22.33 42.1875 22.6112 43.7812 22.9862C43.2656 24.5331 42.7031 26.1737 42 27.8143C41.4844 26.83 40.9687 25.8456 40.4062 24.9081ZM14.8594 17.3143C14.0625 12.3925 14.7187 8.92371 16.6406 7.79871C17.1094 7.51746 17.6719 7.37683 18.2812 7.37683C21.0938 7.37683 24.6094 9.67371 28.125 13.1425C26.4844 14.9237 24.8437 16.9862 23.25 19.2362C20.5312 19.4706 17.9531 19.8925 15.5156 20.4081C15.2344 19.33 15.0469 18.2987 14.8594 17.3143ZM3.28125 30.9081C3.28125 28.705 5.95313 26.3612 10.6406 24.6268C11.5781 24.2518 12.6094 23.9237 13.6406 23.6425C14.3906 25.9862 15.3281 28.4706 16.4531 30.955C15.3281 33.4393 14.3438 35.8768 13.6406 38.2206C7.17188 36.3456 3.28125 33.5331 3.28125 30.9081ZM16.6406 54.0175C14.7187 52.8925 14.0625 49.4237 14.8594 44.5018C15 43.5175 15.2344 42.4862 15.5156 41.4081C17.9531 41.9706 20.5312 42.3456 23.25 42.58C24.8437 44.83 26.4844 46.8456 28.125 48.6737C24.6562 52.0956 21.1406 54.4393 18.2812 54.4393C17.6719 54.4393 17.1094 54.2987 16.6406 54.0175ZM45.1406 44.5018C45.9375 49.4237 45.2812 52.8925 43.3594 54.0175C42.8906 54.2987 42.3281 54.4393 41.7188 54.4393C38.9062 54.4393 35.3906 52.1425 31.875 48.6737C33.5156 46.8925 35.1562 44.83 36.75 42.58C39.4688 42.3456 42.0469 41.9237 44.4844 41.4081C44.7656 42.4862 44.9531 43.5175 45.1406 44.5018ZM49.3594 37.1893C48.4219 37.5643 47.3906 37.8925 46.3594 38.1737C45.6094 35.83 44.6719 33.3456 43.5469 30.8612C44.6719 28.3768 45.6562 25.9393 46.3594 23.5956C52.8281 25.4706 56.7188 28.2831 56.7188 30.9081C56.7188 33.1112 54 35.455 49.3594 37.1893Z" fill="#212121"/>
</svg>
