<svg width="60" height="58" viewBox="0 0 60 58" fill="none" xmlns="http://www.w3.org/2000/svg">
<path d="M41.5722 40.2096C37.3534 48.8346 29.9659 54.6377 20.1925 56.5455C18.6939 56.9126 17.1556 57.0921 15.6128 57.0799C9.98777 57.0799 4.83152 54.7361 2.3284 50.8971C-1.03254 45.783 -2.17629 34.9408 8.90496 26.9205C9.12996 28.1439 9.58934 29.8221 9.89402 30.8158C7.71871 32.4319 5.93813 34.5202 4.68621 36.9236C2.62371 40.9736 2.8534 45.0189 5.29559 48.7596C6.98309 51.2814 9.65496 52.8143 13.0909 53.283C17.3825 53.8262 21.7362 53.0063 25.5362 50.9393C31.494 47.808 35.4643 44.0674 38.0612 38.9533C37.3269 38.1945 36.8923 37.1954 36.8378 36.1408C36.7985 35.0092 37.2098 33.9082 37.9814 33.0795C38.753 32.2508 39.8219 31.762 40.9534 31.7205H41.1128C42.2134 31.715 43.274 32.1328 44.0751 32.8875C44.8763 33.6421 45.3567 34.6759 45.4169 35.7749C45.4771 36.8738 45.1126 37.9539 44.3987 38.7916C43.6848 39.6292 42.6761 40.1604 41.5815 40.2752L41.5722 40.2096ZM55.0112 30.7408C60.7346 37.2283 60.8893 44.8643 58.6768 49.2939C56.6143 53.3393 51.1768 57.3893 43.8643 57.3893C40.4507 57.3196 37.0926 56.5121 34.0206 55.0221C35.094 54.258 36.6175 53.0346 37.4565 52.2705C39.8255 53.2968 42.375 53.8418 44.9565 53.8736C49.6909 53.8736 53.2768 51.6611 55.4143 47.6158C56.7878 44.9439 56.8675 41.8127 55.569 38.6064C53.9758 34.5723 51.1407 31.1495 47.4737 28.833C42.6628 25.5899 36.9913 23.8611 31.1893 23.8689H29.8159C29.4956 24.6088 28.9746 25.2441 28.3119 25.7031C27.6491 26.162 26.8711 26.4263 26.0659 26.4658H25.9206C24.8069 26.4521 23.7424 26.0048 22.9533 25.2189C22.1641 24.433 21.7124 23.3704 21.6941 22.2568C21.6758 21.1432 22.0923 20.0663 22.8552 19.2549C23.6182 18.4435 24.6673 17.9614 25.78 17.9111H25.9346C26.71 17.9117 27.4702 18.126 28.1317 18.5303C28.7933 18.9347 29.3306 19.5135 29.6846 20.2033H30.9081C40.6581 20.2033 49.2175 23.9439 55.0112 30.7408ZM16.2221 41.5221C16.1419 40.7437 16.3305 39.9612 16.7565 39.3049C12.4815 31.8986 10.194 22.5096 13.705 12.7361C16.2221 5.39082 22.5596 0.426758 29.4315 0.426758C36.7628 0.426758 44.3987 6.84395 45.3128 19.2096C44.169 18.8299 42.5003 18.2721 41.4972 18.0658C41.2487 14.0205 37.8315 3.94238 29.7362 4.09238C26.8346 4.17207 22.5596 5.54551 20.3612 8.36738C17.6418 11.7359 16.0598 15.8796 15.8425 20.2033C15.3272 26.132 16.7181 32.0703 19.8128 37.1533C19.9836 37.0909 20.1657 37.0653 20.3471 37.0783H20.4971C21.6309 37.0578 22.7265 37.4885 23.5427 38.2757C24.3589 39.063 24.829 40.1422 24.8495 41.276C24.87 42.4098 24.4393 43.5053 23.6521 44.3215C22.8649 45.1377 21.7856 45.6078 20.6518 45.6283H20.4971C19.391 45.6244 18.3291 45.1938 17.5327 44.4262C16.7363 43.6586 16.2668 42.6132 16.2221 41.508V41.5221Z" fill="#212121"/>
</svg>
