<svg width="60" height="61" viewBox="0 0 60 61" fill="none" xmlns="http://www.w3.org/2000/svg">
<g clip-path="url(#clip0_1515_2390)">
<path d="M10.6265 22.9393H57.3468V57.4721H10.6265V22.9393Z" fill="white"/>
<path d="M0.703125 30.8659V60.1628H59.2969V1.56903H0.703125V30.8659ZM47.9203 28.5222C49.3237 28.8478 50.5992 29.5818 51.5859 30.6315C52.1292 31.1971 52.6014 31.8267 52.9922 32.5065C52.9922 32.5815 50.4609 34.2925 48.9188 35.2487C48.8625 35.2862 48.6375 35.0425 48.3891 34.6722C48.1075 34.1864 47.7075 33.7798 47.2264 33.4905C46.7452 33.2011 46.1986 33.0384 45.6375 33.0175C43.8609 32.8956 42.7172 33.8284 42.7266 35.3612C42.7119 35.7428 42.7993 36.1215 42.9797 36.4581C43.3688 37.269 44.0953 37.7518 46.3734 38.7362C50.5687 40.5409 52.3641 41.7315 53.4797 43.4237C54.7266 45.2987 55.0031 48.3268 54.1594 50.5675C53.2219 53.005 50.925 54.6597 47.6766 55.2081C46.1929 55.378 44.6938 55.3623 43.2141 55.1612C40.9461 54.7874 38.8569 53.6985 37.2516 52.0534C36.7125 51.4581 35.6625 49.9065 35.7281 49.794C35.8992 49.667 36.0794 49.5526 36.2672 49.4518L38.4375 48.2518L40.1203 47.2768L40.4719 47.7972C41.0652 48.6459 41.8203 49.3691 42.6938 49.9253C44.5688 50.9097 47.1281 50.7737 48.3937 49.6347C48.8187 49.2173 49.0838 48.6641 49.1429 48.0714C49.202 47.4786 49.0513 46.884 48.7172 46.3909C48.2484 45.7393 47.3109 45.1909 44.6906 44.0472C41.6672 42.744 40.3641 41.9378 39.1734 40.6534C38.4302 39.8059 37.8814 38.8059 37.5656 37.7237C37.3301 36.4874 37.2953 35.2211 37.4625 33.9737C38.0859 31.0534 40.275 29.0143 43.4719 28.4097C44.9524 28.2265 46.4521 28.2676 47.9203 28.5315V28.5222ZM34.1672 30.9784V33.3784H26.5594V55.0487H21.1641V33.3737H13.5375V31.03C13.5137 30.2217 13.5325 29.4128 13.5938 28.6065C13.6313 28.5643 18.2812 28.5643 23.9062 28.5643H34.1391L34.1672 30.9784Z" fill="#212121"/>
</g>
<defs>
<clipPath id="clip0_1515_2390">
<rect width="60" height="60" fill="white" transform="translate(0 0.908081)"/>
</clipPath>
</defs>
</svg>
