<svg width="230" height="230" viewBox="0 0 230 230" fill="none" xmlns="http://www.w3.org/2000/svg">
<rect width="230" height="230" rx="115" fill="#212121"/>
<path fill-rule="evenodd" clip-rule="evenodd" d="M115.197 39.1666C73.4201 39.1666 39.5605 73.0262 39.5605 114.803C39.5605 148.215 61.2261 176.569 91.2865 186.579C95.0705 187.262 96.4355 184.933 96.4355 182.931C96.4355 181.134 96.3749 176.372 96.3521 170.07C75.3084 174.635 70.8645 159.924 70.8645 159.924C67.4369 151.188 62.4698 148.86 62.4698 148.86C55.6069 144.165 62.993 144.272 62.993 144.272C70.5915 144.802 74.5728 152.067 74.5728 152.067C81.322 163.624 92.2875 160.288 96.5796 158.354C97.2697 153.463 99.2414 150.126 101.395 148.238C84.6055 146.334 66.9515 139.843 66.9515 110.852C66.9515 102.609 69.9015 95.8445 74.7169 90.5665C73.951 88.6479 71.3347 80.9508 75.4676 70.5465C75.4676 70.5465 81.8149 68.5065 96.2611 78.289C102.431 76.6106 108.795 75.7539 115.189 75.741C121.583 75.7514 127.948 76.6082 134.117 78.289C148.571 68.499 154.911 70.5465 154.911 70.5465C159.044 80.9508 156.45 88.6479 155.661 90.5665C160.515 95.8445 163.427 102.601 163.427 110.852C163.427 139.919 145.758 146.304 128.907 148.177C131.599 150.513 134.026 155.123 134.026 162.176C134.026 172.292 133.935 180.452 133.935 182.931C133.935 184.956 135.285 187.307 139.145 186.564C169.19 176.539 190.833 148.207 190.833 114.803C190.833 73.0262 156.973 39.1666 115.197 39.1666Z" fill="white"/>
</svg>
