<svg width="230" height="230" viewBox="0 0 230 230" fill="none" xmlns="http://www.w3.org/2000/svg">
<rect width="230" height="230" rx="115" fill="#212121"/>
<path d="M166.036 65.0259L156.329 72.6092L115 103.322L73.6707 72.3059L63.964 64.7225C61.6773 62.8308 58.8859 61.6516 55.9355 61.3309C52.9851 61.0102 50.0055 61.5621 47.3657 62.9183C44.726 64.2745 42.5421 66.3754 41.0847 68.9607C39.6273 71.5459 38.9603 74.5019 39.1665 77.4625V165.353C39.1665 168.089 40.2531 170.712 42.1872 172.646C44.1214 174.58 46.7446 175.667 49.4799 175.667H73.6707V117.123L115 148.139L156.329 117.123V175.667H180.52C183.255 175.667 185.878 174.58 187.812 172.646C189.747 170.712 190.833 168.089 190.833 165.353V77.4625C190.976 74.5275 190.262 71.6143 188.78 69.0771C187.298 66.5398 185.11 64.4878 182.484 63.1705C179.857 61.8531 176.904 61.3272 173.984 61.6566C171.064 61.9859 168.303 63.1565 166.036 65.0259Z" fill="white"/>
</svg>
