<svg width="230" height="230" viewBox="0 0 230 230" fill="none" xmlns="http://www.w3.org/2000/svg">
<rect width="230" height="230" rx="115" fill="#212121"/>
<path fill-rule="evenodd" clip-rule="evenodd" d="M163.556 66.7169C157.249 60.3688 149.746 55.3352 141.48 51.9078C133.214 48.4804 124.35 46.7272 115.402 46.75C77.8796 46.75 47.3339 77.2881 47.3188 114.826C47.3188 126.822 50.4507 138.531 56.4036 148.86L46.75 184.13L82.8391 174.658C92.8217 180.092 104.006 182.942 115.372 182.947H115.402C152.917 182.947 183.462 152.409 183.478 114.871C183.503 105.926 181.756 97.0653 178.337 88.8C174.917 80.5347 169.894 73.029 163.556 66.7169ZM115.402 171.458H115.379C105.244 171.459 95.2957 168.732 86.5777 163.564L84.515 162.335L63.0997 167.954L68.8099 147.077L67.4677 144.939C61.8013 135.918 58.8017 125.478 58.8151 114.826C58.8303 83.6277 84.2117 58.2463 115.425 58.2463C122.858 58.2298 130.221 59.6878 137.088 62.5358C143.954 65.3839 150.187 69.5655 155.427 74.8386C160.694 80.0866 164.869 86.3266 167.711 93.1979C170.552 100.069 172.004 107.435 171.981 114.871C171.966 146.069 146.585 171.458 115.402 171.458ZM146.44 129.075C144.734 128.218 136.377 124.108 134.815 123.539C133.261 122.97 132.131 122.689 130.993 124.388C129.856 126.087 126.595 129.916 125.602 131.054C124.608 132.191 123.615 132.328 121.916 131.479C120.217 130.629 114.735 128.832 108.236 123.038C103.178 118.526 99.7651 112.96 98.7717 111.254C97.7782 109.548 98.6655 108.63 99.5224 107.781C100.288 107.022 101.221 105.794 102.07 104.8C102.92 103.807 103.2 103.102 103.769 101.964C104.338 100.827 104.057 99.8333 103.625 98.984C103.2 98.127 99.7954 89.7551 98.3773 86.3501C97.0047 83.0514 95.6018 83.4912 94.5553 83.4457C93.4715 83.4014 92.3868 83.3812 91.3021 83.3851C90.4395 83.407 89.5908 83.607 88.8091 83.9724C88.0275 84.3378 87.3297 84.8607 86.7597 85.5084C85.1975 87.2146 80.8068 91.3248 80.8068 99.6968C80.8068 108.069 86.9037 116.16 87.7531 117.298C88.6024 118.435 99.7499 135.611 116.812 142.982C120.877 144.734 124.047 145.781 126.511 146.569C130.584 147.866 134.292 147.677 137.227 147.244C140.495 146.759 147.29 143.134 148.708 139.16C150.126 135.187 150.126 131.782 149.701 131.069C149.277 130.356 148.132 129.924 146.44 129.075Z" fill="white"/>
</svg>
