<svg width="256" height="39" viewBox="0 0 256 39" fill="none" xmlns="http://www.w3.org/2000/svg">
<path d="M83.7896 24.3424C83.7896 21.5798 84.3598 19.1624 85.5003 17.0904C86.6407 14.9855 88.2004 13.3575 90.1794 12.2064C92.1919 11.0553 94.4225 10.4798 96.871 10.4798C99.2861 10.4798 101.382 10.9895 103.16 12.0091C104.938 13.0287 106.263 14.3113 107.135 15.8571V10.9238H111.764V37.9584H107.135V32.9264C106.229 34.5051 104.871 35.8207 103.06 36.8731C101.282 37.8927 99.2022 38.4024 96.8207 38.4024C94.3722 38.4024 92.1584 37.8104 90.1794 36.6264C88.2004 35.4424 86.6407 33.7815 85.5003 31.6438C84.3598 29.506 83.7896 27.0722 83.7896 24.3424ZM107.135 24.3918C107.135 22.3527 106.716 20.5767 105.877 19.0638C105.039 17.5509 103.898 16.3998 102.456 15.6104C101.047 14.7882 99.4873 14.3771 97.7767 14.3771C96.066 14.3771 94.5063 14.7718 93.0975 15.5611C91.6888 16.3504 90.5651 17.5016 89.7266 19.0144C88.888 20.5273 88.4687 22.3033 88.4687 24.3424C88.4687 26.4144 88.888 28.2233 89.7266 29.7691C90.5651 31.282 91.6888 32.4496 93.0975 33.2718C94.5063 34.0611 96.066 34.4558 97.7767 34.4558C99.4873 34.4558 101.047 34.0611 102.456 33.2718C103.898 32.4496 105.039 31.282 105.877 29.7691C106.716 28.2233 107.135 26.4309 107.135 24.3918Z" fill="#212121"/>
<path d="M117.79 24.3424C117.79 21.5798 118.361 19.1624 119.501 17.0904C120.641 14.9855 122.201 13.3575 124.18 12.2064C126.193 11.0553 128.44 10.4798 130.922 10.4798C133.069 10.4798 135.065 10.9731 136.909 11.9598C138.754 12.9135 140.163 14.1798 141.136 15.7584V1.45177H145.765V37.9584H141.136V32.8771C140.23 34.4887 138.888 35.8207 137.111 36.8731C135.333 37.8927 133.253 38.4024 130.872 38.4024C128.423 38.4024 126.193 37.8104 124.18 36.6264C122.201 35.4424 120.641 33.7815 119.501 31.6438C118.361 29.506 117.79 27.0722 117.79 24.3424ZM141.136 24.3918C141.136 22.3527 140.716 20.5767 139.878 19.0638C139.039 17.5509 137.899 16.3998 136.457 15.6104C135.048 14.7882 133.488 14.3771 131.777 14.3771C130.067 14.3771 128.507 14.7718 127.098 15.5611C125.69 16.3504 124.566 17.5016 123.727 19.0144C122.889 20.5273 122.469 22.3033 122.469 24.3424C122.469 26.4144 122.889 28.2233 123.727 29.7691C124.566 31.282 125.69 32.4496 127.098 33.2718C128.507 34.0611 130.067 34.4558 131.777 34.4558C133.488 34.4558 135.048 34.0611 136.457 33.2718C137.899 32.4496 139.039 31.282 139.878 29.7691C140.716 28.2233 141.136 26.4309 141.136 24.3918Z" fill="#212121"/>
<path d="M186.477 6.53311C185.605 6.53311 184.867 6.23711 184.263 5.6451C183.659 5.0531 183.358 4.32955 183.358 3.47444C183.358 2.61933 183.659 1.89577 184.263 1.30377C184.867 0.711772 185.605 0.415771 186.477 0.415771C187.316 0.415771 188.02 0.711772 188.59 1.30377C189.194 1.89577 189.496 2.61933 189.496 3.47444C189.496 4.32955 189.194 5.0531 188.59 5.6451C188.02 6.23711 187.316 6.53311 186.477 6.53311ZM188.691 10.9238V37.9584H184.112V10.9238H188.691Z" fill="#212121"/>
<path d="M194.783 24.3424C194.783 21.5798 195.354 19.1624 196.494 17.0904C197.634 14.9855 199.194 13.3575 201.173 12.2064C203.186 11.0553 205.416 10.4798 207.865 10.4798C210.28 10.4798 212.376 10.9895 214.154 12.0091C215.932 13.0287 217.257 14.3113 218.129 15.8571V10.9238H222.758V37.9584H218.129V32.9264C217.223 34.5051 215.865 35.8207 214.053 36.8731C212.276 37.8927 210.196 38.4024 207.815 38.4024C205.366 38.4024 203.152 37.8104 201.173 36.6264C199.194 35.4424 197.634 33.7815 196.494 31.6438C195.354 29.506 194.783 27.0722 194.783 24.3424ZM218.129 24.3918C218.129 22.3527 217.709 20.5767 216.871 19.0638C216.032 17.5509 214.892 16.3998 213.45 15.6104C212.041 14.7882 210.481 14.3771 208.77 14.3771C207.06 14.3771 205.5 14.7718 204.091 15.5611C202.683 16.3504 201.559 17.5016 200.72 19.0144C199.882 20.5273 199.463 22.3033 199.463 24.3424C199.463 26.4144 199.882 28.2233 200.72 29.7691C201.559 31.282 202.683 32.4496 204.091 33.2718C205.5 34.0611 207.06 34.4558 208.77 34.4558C210.481 34.4558 212.041 34.0611 213.45 33.2718C214.892 32.4496 216.032 31.282 216.871 29.7691C217.709 28.2233 218.129 26.4309 218.129 24.3918Z" fill="#212121"/>
<path d="M243.928 10.4304C247.283 10.4304 250 11.4335 252.079 13.4398C254.159 15.4131 255.199 18.2744 255.199 22.0238V37.9584H250.67V22.6651C250.67 19.9682 249.983 17.9127 248.608 16.4984C247.232 15.0513 245.354 14.3278 242.972 14.3278C240.557 14.3278 238.629 15.0678 237.186 16.5478C235.778 18.0278 235.073 20.182 235.073 23.0104V37.9584H230.495V10.9238H235.073V14.7718C235.979 13.3904 237.203 12.3215 238.746 11.5651C240.323 10.8087 242.05 10.4304 243.928 10.4304Z" fill="#212121"/>
<path d="M60.6954 10.9238V14.4264H56.6704V37.9584H52.1422V14.4264H37.652V37.9584H33.0734V14.4264H29.0987V10.9238H60.6954Z" fill="#EB5E28"/>
<path d="M0.762512 34.3571C5.02237 31.0024 8.35981 28.2562 10.7748 26.1184C13.1899 23.9478 15.2192 21.6949 16.8628 19.3598C18.5399 16.9918 19.3784 14.6731 19.3784 12.4038C19.3784 10.266 18.8417 8.58866 17.7684 7.37177C16.7286 6.12199 15.0347 5.4971 12.6868 5.4971C10.4059 5.4971 8.62815 6.20422 7.35355 7.61844C6.11249 8.99977 5.44165 10.858 5.34102 13.1931H0.913452C1.04762 9.50955 2.18805 6.66466 4.33475 4.65844C6.48145 2.65222 9.24868 1.6491 12.6364 1.6491C16.0913 1.6491 18.825 2.58644 20.8375 4.46111C22.8836 6.33577 23.9066 8.91755 23.9066 12.2064C23.9066 14.9362 23.0681 17.6002 21.3909 20.1984C19.7474 22.7638 17.869 25.0331 15.7559 27.0064C13.6427 28.9469 10.9426 31.2162 7.65543 33.8144H24.9632V37.5638H0.762512V34.3571Z" fill="#EB5E28"/>
<path d="M71.3096 15.3144C72.1146 13.7687 73.255 12.5682 74.7309 11.7131C76.2403 10.858 78.0683 10.4304 80.215 10.4304V15.0678H79.0075C73.8755 15.0678 71.3096 17.7976 71.3096 23.2571V37.9584H66.731V10.9238H71.3096V15.3144Z" fill="#212121"/>
<path fill-rule="evenodd" clip-rule="evenodd" d="M171.967 37.9584L163.615 23.8984H158.08V37.9584H153.502V3.57311H164.822C167.472 3.57311 169.703 4.01711 171.514 4.90511C173.359 5.79311 174.734 6.99355 175.64 8.50644C176.545 10.0193 176.998 11.746 176.998 13.6864C176.998 16.0544 176.294 18.1429 174.885 19.9518C173.51 21.7607 171.43 22.9611 168.646 23.5531L177.451 37.9584H171.967ZM164.822 20.2971H158.08V7.2731H164.822C167.338 7.2731 169.199 7.83222 170.407 8.95044C171.648 10.0687 172.269 11.6473 172.269 13.6864C172.269 15.6927 171.648 17.3042 170.407 18.5211C169.166 19.7051 167.304 20.2971 164.822 20.2971Z" fill="#EB5E28"/>
</svg>
