<svg width="230" height="230" viewBox="0 0 230 230" fill="none" xmlns="http://www.w3.org/2000/svg">
<rect width="230" height="230" rx="115" fill="#212121"/>
<path d="M61.7876 78.5772C70.9513 78.5772 78.38 71.1486 78.38 61.9849C78.38 52.8212 70.9513 45.3926 61.7876 45.3926C52.624 45.3926 45.1953 52.8212 45.1953 61.9849C45.1953 71.1486 52.624 78.5772 61.7876 78.5772Z" fill="white"/>
<path d="M94.0475 91.1504V183.204H122.629V137.682C122.629 125.67 124.889 114.037 139.783 114.037C154.472 114.037 154.654 127.77 154.654 138.44V183.212H183.25V132.73C183.25 107.932 177.912 88.8754 148.928 88.8754C135.013 88.8754 125.685 96.5118 121.871 103.739H121.484V91.1504H94.0475ZM47.4707 91.1504H76.0978V183.204H47.4707V91.1504Z" fill="white"/>
</svg>
